<mxfile host="Electron" modified="2024-04-23T20:01:12.966Z" agent="Mozilla/5.0 (Windows NT 10.0; Win64; x64) AppleWebKit/537.36 (KHTML, like Gecko) draw.io/23.1.5 Chrome/120.0.6099.109 Electron/28.1.0 Safari/537.36" etag="uzaV1zaq5P5K_FT1MGks" version="23.1.5" type="device">
  <diagram name="Page-1" id="sjzf2LsoqcyN5KRJoK9p">
    <mxGraphModel dx="780" dy="544" grid="1" gridSize="10" guides="1" tooltips="1" connect="1" arrows="1" fold="1" page="1" pageScale="1" pageWidth="827" pageHeight="1169" math="0" shadow="0">
      <root>
        <mxCell id="0" />
        <mxCell id="1" parent="0" />
        <mxCell id="sxmbdU6JYAJy3Bn8awXf-1" value="Actor" style="shape=umlActor;verticalLabelPosition=bottom;verticalAlign=top;html=1;outlineConnect=0;" vertex="1" parent="1">
          <mxGeometry x="140" y="90" width="30" height="60" as="geometry" />
        </mxCell>
        <mxCell id="sxmbdU6JYAJy3Bn8awXf-2" value="Information&amp;nbsp;&lt;br&gt;(Cree une barre de rechercher intuitive" style="rounded=0;whiteSpace=wrap;html=1;" vertex="1" parent="1">
          <mxGeometry x="330" y="50" width="120" height="60" as="geometry" />
        </mxCell>
        <mxCell id="sxmbdU6JYAJy3Bn8awXf-3" value="Faire une chaque semaine une enregistrement des document" style="rounded=0;whiteSpace=wrap;html=1;" vertex="1" parent="1">
          <mxGeometry x="330" y="400" width="120" height="60" as="geometry" />
        </mxCell>
        <mxCell id="sxmbdU6JYAJy3Bn8awXf-4" value="Actor" style="shape=umlActor;verticalLabelPosition=bottom;verticalAlign=top;html=1;outlineConnect=0;" vertex="1" parent="1">
          <mxGeometry x="80" y="445" width="30" height="60" as="geometry" />
        </mxCell>
        <mxCell id="sxmbdU6JYAJy3Bn8awXf-5" value="Information" style="ellipse;whiteSpace=wrap;html=1;" vertex="1" parent="1">
          <mxGeometry x="240" y="505" width="120" height="80" as="geometry" />
        </mxCell>
        <mxCell id="sxmbdU6JYAJy3Bn8awXf-7" value="Actor" style="shape=umlActor;verticalLabelPosition=bottom;verticalAlign=top;html=1;outlineConnect=0;" vertex="1" parent="1">
          <mxGeometry x="680" y="480" width="30" height="60" as="geometry" />
        </mxCell>
        <mxCell id="sxmbdU6JYAJy3Bn8awXf-9" value="Actor" style="shape=umlActor;verticalLabelPosition=bottom;verticalAlign=top;html=1;outlineConnect=0;" vertex="1" parent="1">
          <mxGeometry x="260" y="690" width="30" height="60" as="geometry" />
        </mxCell>
        <mxCell id="sxmbdU6JYAJy3Bn8awXf-11" value="" style="endArrow=classic;startArrow=classic;html=1;rounded=0;" edge="1" parent="1" source="sxmbdU6JYAJy3Bn8awXf-4" target="sxmbdU6JYAJy3Bn8awXf-5">
          <mxGeometry width="50" height="50" relative="1" as="geometry">
            <mxPoint x="380" y="310" as="sourcePoint" />
            <mxPoint x="430" y="260" as="targetPoint" />
          </mxGeometry>
        </mxCell>
        <mxCell id="sxmbdU6JYAJy3Bn8awXf-12" value="" style="endArrow=classic;startArrow=classic;html=1;rounded=0;" edge="1" parent="1" source="sxmbdU6JYAJy3Bn8awXf-5" target="sxmbdU6JYAJy3Bn8awXf-7">
          <mxGeometry width="50" height="50" relative="1" as="geometry">
            <mxPoint x="380" y="310" as="sourcePoint" />
            <mxPoint x="430" y="260" as="targetPoint" />
          </mxGeometry>
        </mxCell>
        <mxCell id="sxmbdU6JYAJy3Bn8awXf-13" value="" style="endArrow=classic;startArrow=classic;html=1;rounded=0;exitX=0.733;exitY=0.929;exitDx=0;exitDy=0;exitPerimeter=0;" edge="1" parent="1" source="sxmbdU6JYAJy3Bn8awXf-5" target="sxmbdU6JYAJy3Bn8awXf-9">
          <mxGeometry width="50" height="50" relative="1" as="geometry">
            <mxPoint x="380" y="310" as="sourcePoint" />
            <mxPoint x="430" y="260" as="targetPoint" />
          </mxGeometry>
        </mxCell>
        <mxCell id="sxmbdU6JYAJy3Bn8awXf-14" value="Faire une fonction permet de genere une moule pour les dossier" style="rounded=0;whiteSpace=wrap;html=1;" vertex="1" parent="1">
          <mxGeometry x="330" y="190" width="120" height="60" as="geometry" />
        </mxCell>
        <mxCell id="sxmbdU6JYAJy3Bn8awXf-16" value="Faire une tableau de bord qui donne des statistique sur&amp;nbsp;" style="rounded=0;whiteSpace=wrap;html=1;" vertex="1" parent="1">
          <mxGeometry x="330" y="260" width="120" height="60" as="geometry" />
        </mxCell>
        <mxCell id="sxmbdU6JYAJy3Bn8awXf-19" value="Filtrer les document actifs, semi-actifs et inactifs" style="rounded=1;whiteSpace=wrap;html=1;" vertex="1" parent="1">
          <mxGeometry x="330" y="330" width="120" height="60" as="geometry" />
        </mxCell>
        <mxCell id="sxmbdU6JYAJy3Bn8awXf-20" value="marque les dossier&amp;nbsp;indésirable et le supprimer apres" style="rounded=0;whiteSpace=wrap;html=1;" vertex="1" parent="1">
          <mxGeometry x="330" y="120" width="120" height="60" as="geometry" />
        </mxCell>
        <mxCell id="sxmbdU6JYAJy3Bn8awXf-21" value="Faire une interface unique pour la gestion" style="rounded=1;whiteSpace=wrap;html=1;" vertex="1" parent="1">
          <mxGeometry x="240" y="810" width="120" height="60" as="geometry" />
        </mxCell>
        <mxCell id="sxmbdU6JYAJy3Bn8awXf-22" value="Faire une table contient ensemble des personnel avec son role&amp;nbsp;" style="rounded=1;whiteSpace=wrap;html=1;" vertex="1" parent="1">
          <mxGeometry x="450" y="850" width="120" height="60" as="geometry" />
        </mxCell>
        <mxCell id="sxmbdU6JYAJy3Bn8awXf-23" value="L&#39;authentification et l&#39;autorisation" style="rounded=1;whiteSpace=wrap;html=1;" vertex="1" parent="1">
          <mxGeometry x="230" y="910" width="120" height="70" as="geometry" />
        </mxCell>
        <mxCell id="sxmbdU6JYAJy3Bn8awXf-24" value="RH&amp;nbsp;&lt;br&gt;-recrutement&lt;br&gt;-a gestion du personnel&lt;br&gt;-la formation&lt;br&gt;-la gestion des performances" style="rounded=0;whiteSpace=wrap;html=1;" vertex="1" parent="1">
          <mxGeometry x="60" y="1030" width="150" height="110" as="geometry" />
        </mxCell>
        <mxCell id="sxmbdU6JYAJy3Bn8awXf-25" value="Superviseur&lt;br&gt;-a délégation des tâches&amp;nbsp;&lt;br&gt;-l&#39;orientation des employés&lt;br&gt;-la résolution des problèmes liés au travail" style="rounded=0;whiteSpace=wrap;html=1;" vertex="1" parent="1">
          <mxGeometry x="300" y="1000" width="160" height="100" as="geometry" />
        </mxCell>
        <mxCell id="sxmbdU6JYAJy3Bn8awXf-26" value="Employer&amp;nbsp;&lt;br&gt;- travail dans une bureau&lt;br&gt;- travail dans le terrain&lt;div&gt;&lt;br/&gt;&lt;/div&gt;" style="rounded=0;whiteSpace=wrap;html=1;" vertex="1" parent="1">
          <mxGeometry x="540" y="990" width="150" height="80" as="geometry" />
        </mxCell>
      </root>
    </mxGraphModel>
  </diagram>
</mxfile>
